<svg width="129" height="34" viewBox="0 0 129 34" fill="none" xmlns="http://www.w3.org/2000/svg">
<path d="M72.7936 0.839844H0V33.48H72.7936V0.839844Z" fill="#E30613"/>
<path d="M72.793 0.839844V33.48H129L119.49 0.839844H72.793Z" fill="#2D2E83"/>
<path d="M84.2278 29.1911C84.0847 29.21 83.9393 29.1868 83.8092 29.1243C83.6791 29.0618 83.5701 28.9627 83.4955 28.8392L80.3 24.0269V28.8392C80.2976 28.9318 80.2597 29.0199 80.1942 29.0854C80.1288 29.1508 80.0406 29.1887 79.9481 29.1911H77.7036C77.657 29.1924 77.6107 29.1842 77.5674 29.167C77.5241 29.1498 77.4848 29.1239 77.4518 29.091C77.4189 29.058 77.393 29.0187 77.3758 28.9754C77.3586 28.9321 77.3504 28.8858 77.3517 28.8392V19.5664C77.3517 19.4722 77.3884 19.3817 77.4542 19.3142C77.5199 19.2467 77.6094 19.2075 77.7036 19.205H79.3489C79.6913 19.205 79.8435 19.3192 80.1478 19.7186C80.4521 20.118 83.2292 24.2837 83.2292 24.2837V19.5284C83.2279 19.4814 83.2361 19.4346 83.2532 19.3908C83.2703 19.347 83.296 19.3071 83.3288 19.2734C83.3617 19.2397 83.4009 19.2129 83.4442 19.1947C83.4875 19.1764 83.5341 19.167 83.5811 19.167H85.8066C85.9024 19.167 85.9943 19.2051 86.0621 19.2728C86.1299 19.3406 86.168 19.4325 86.168 19.5284V28.8012C86.168 28.8482 86.1586 28.8947 86.1403 28.9381C86.122 28.9814 86.0952 29.0206 86.0616 29.0534C86.0279 29.0862 85.9879 29.1119 85.9441 29.129C85.9003 29.1462 85.8536 29.1543 85.8066 29.1531L84.2278 29.1911Z" fill="white"/>
<path d="M95.1546 27.0988V28.8392C95.1546 28.8863 95.1452 28.9328 95.1269 28.9761C95.1087 29.0195 95.0819 29.0587 95.0482 29.0915C95.0145 29.1243 94.9746 29.15 94.9308 29.1671C94.887 29.1842 94.8402 29.1924 94.7932 29.1911H88.2309C88.1844 29.1925 88.138 29.1842 88.0947 29.167C88.0514 29.1498 88.0121 29.1239 87.9792 29.091C87.9462 29.0581 87.9204 29.0187 87.9032 28.9754C87.8859 28.9322 87.8777 28.8858 87.879 28.8392V19.5665C87.8778 19.5195 87.8859 19.4727 87.903 19.4289C87.9202 19.3851 87.9459 19.3452 87.9787 19.3115C88.0115 19.2778 88.0507 19.251 88.094 19.2327C88.1374 19.2145 88.1839 19.2051 88.2309 19.2051H94.7552C94.8493 19.2076 94.9388 19.2467 95.0046 19.3142C95.0703 19.3817 95.1071 19.4723 95.107 19.5665V21.3069C95.1046 21.3995 95.0668 21.4876 95.0013 21.5531C94.9358 21.6185 94.8477 21.6564 94.7552 21.6588H90.8178V22.9617H94.0133C94.1075 22.9642 94.197 23.0034 94.2628 23.0709C94.3285 23.1384 94.3653 23.2289 94.3652 23.3231V25.0636C94.3628 25.1561 94.325 25.2442 94.2595 25.3097C94.194 25.3752 94.1059 25.4131 94.0133 25.4155H90.8178V26.766H94.7932C94.8843 26.7657 94.9722 26.7998 95.0392 26.8615C95.1062 26.9232 95.1474 27.008 95.1546 27.0988Z" fill="white"/>
<path d="M111.971 19.7091C111.848 20.0515 109.004 28.592 108.89 28.8393C108.776 29.0865 108.709 29.1911 108.452 29.1911H106.179C105.922 29.1911 105.837 29.077 105.742 28.8393C105.647 28.6015 104.23 24.512 104.23 24.512C104.23 24.512 102.774 28.7251 102.727 28.8393C102.679 28.9534 102.527 29.1911 102.27 29.1911H100.016C99.7597 29.1911 99.6741 29.077 99.5599 28.8393C99.4458 28.6015 96.6212 20.0515 96.4975 19.7091C96.3739 19.3668 96.4975 19.2051 96.7543 19.2051H99.0749C99.4934 19.2051 99.5599 19.3477 99.7026 19.7186C99.8072 19.9469 101.243 25.0255 101.243 25.0255C101.243 25.0255 102.984 19.8042 103.031 19.7186C103.174 19.3477 103.241 19.2051 103.659 19.2051H104.8C105.228 19.2051 105.285 19.3477 105.437 19.7186L107.225 25.0255C107.225 25.0255 108.662 19.9469 108.747 19.7186C108.909 19.3477 108.966 19.2051 109.394 19.2051H111.714C111.943 19.2051 112.085 19.3953 111.971 19.7091Z" fill="white"/>
<path d="M120.047 27.1942C119.752 28.364 118.668 29.3626 116.243 29.3626C115.233 29.3888 114.239 29.1104 113.39 28.5637C113.257 28.4781 113.219 28.364 113.276 28.1548C113.333 27.9455 113.675 26.6426 113.704 26.538C113.716 26.508 113.734 26.4809 113.758 26.4582C113.781 26.4356 113.808 26.4179 113.839 26.4063C113.869 26.3948 113.901 26.3895 113.934 26.3909C113.966 26.3923 113.998 26.4002 114.027 26.4144C114.565 26.6935 115.142 26.8891 115.739 26.9945C116.414 26.9945 116.937 26.8423 116.956 26.4239C116.975 26.0054 116.557 25.8152 115.397 25.0163C114.236 24.2174 113.114 23.0476 113.333 21.3357C113.59 19.2054 115.729 19.0342 116.871 19.0342C117.718 19.0465 118.559 19.1909 119.362 19.4622C119.41 19.4688 119.455 19.4852 119.495 19.5104C119.536 19.5356 119.571 19.5689 119.598 19.6083C119.624 19.6477 119.643 19.6923 119.651 19.7392C119.66 19.7861 119.659 19.8342 119.648 19.8806C119.648 20.0518 119.362 21.3643 119.334 21.5354C119.305 21.7066 119.191 21.8493 118.925 21.7447C118.363 21.514 117.764 21.3852 117.156 21.3643C116.88 21.3643 116.566 21.4784 116.5 21.6591C116.31 22.1441 116.823 22.5341 118.402 23.6468C119.981 24.7595 120.361 25.9674 120.047 27.1942Z" fill="white"/>
<path d="M46.0144 6.59473V12.1584H39.9466V28.2597H33.2893V12.1584H27.7161C27.7161 9.76173 26.765 7.51725 24.3398 6.59473H46.0144Z" fill="white"/>
<path d="M25.7758 25.9201L25.5571 23.6376C25.3764 21.7355 24.606 18.8253 22.3996 18.2832C23.3851 17.8009 24.2108 17.0447 24.7775 16.1051C25.3443 15.1656 25.6281 14.0826 25.5951 12.9858C25.5951 7.96424 21.2393 6.59473 17.863 6.59473H7.01152C6.79712 6.59473 6.5915 6.6799 6.4399 6.8315C6.28829 6.9831 6.20313 7.18872 6.20312 7.40312V28.2597H12.7749V20.6513H15.5805C18.6809 20.6513 19.0804 22.5534 19.2611 25.0357L19.3562 26.253C19.3746 26.9481 19.5063 27.6356 19.7461 28.2883H26.3179C25.9545 27.5623 25.7687 26.7604 25.7758 25.9487M16.4269 16.0577H12.7749V11.6163H16.0655C18.1008 11.6163 19.1375 12.3486 19.1375 13.8037C19.1375 15.5061 17.9486 16.0577 16.4269 16.0577Z" fill="white"/>
<path d="M62.5504 6.54688C65.6509 6.54688 67.1821 8.31583 67.1821 10.9312V28.2119H60.8671L55.4841 18.9962C54.8754 17.931 54.3523 16.8658 53.8388 15.7341C53.9981 17.3839 54.0679 19.0412 54.048 20.6986V28.2119H47.6094V6.54688H54.2097L58.8889 14.6689C59.6758 15.9874 60.387 17.3496 61.0192 18.7489C60.8671 17.1036 60.8671 15.4297 60.8671 13.7559V6.54688H62.5504Z" fill="white"/>
<path d="M85.2809 16.5321H82.7701C82.6561 16.5243 82.5462 16.4868 82.4511 16.4234C82.356 16.36 82.2791 16.2729 82.228 16.1707C82.171 16.0756 81.3816 14.649 80.7444 13.4792H79.974V16.1707C79.974 16.2665 79.936 16.3585 79.8682 16.4262C79.8004 16.494 79.7085 16.5321 79.6126 16.5321H77.3872C77.3402 16.5321 77.2936 16.5227 77.2503 16.5044C77.207 16.4862 77.1677 16.4594 77.1349 16.4257C77.1021 16.392 77.0764 16.3521 77.0593 16.3083C77.0422 16.2645 77.034 16.2177 77.0353 16.1707V6.89792C77.034 6.85136 77.0422 6.80501 77.0594 6.76172C77.0766 6.71844 77.1025 6.67912 77.1354 6.64618C77.1684 6.61324 77.2077 6.58737 77.251 6.57015C77.2943 6.55293 77.3406 6.54472 77.3872 6.54603H81.4101C83.7402 6.54603 85.1192 7.91555 85.1192 10.0364C85.1532 10.5954 85.0392 11.1535 84.7887 11.6544C84.5383 12.1553 84.1602 12.5813 83.6927 12.8896C84.3774 14.0498 85.4331 15.8854 85.5948 16.0566C85.7565 16.2278 85.6328 16.5321 85.2809 16.5321ZM81.315 8.92367H79.974V11.1206H81.3531C81.6459 11.1233 81.9281 11.0114 82.1396 10.8088C82.351 10.6062 82.4749 10.329 82.4848 10.0364C82.4836 9.88615 82.4525 9.73764 82.3933 9.59954C82.3341 9.46144 82.2479 9.33652 82.1399 9.23205C82.0319 9.12759 81.9042 9.04568 81.7642 8.9911C81.6242 8.93652 81.4747 8.91036 81.3245 8.91416L81.315 8.92367Z" fill="white"/>
<path d="M96.7805 16.532H94.4504C94.0225 16.532 93.9654 16.3893 93.8132 16.0184C93.8132 15.9423 93.6801 15.657 93.5374 15.2005H90.456C90.3134 15.657 90.2183 15.9423 90.1897 16.0184C90.0471 16.3893 89.971 16.532 89.543 16.532H87.232C86.9942 16.532 86.8515 16.3417 86.9752 16.0279C87.0988 15.7141 90.2468 7.14506 90.3609 6.89779C90.475 6.65051 90.5416 6.5459 90.7984 6.5459H93.1951C93.4518 6.5459 93.5374 6.66002 93.6516 6.89779C93.7657 7.13555 96.9042 15.7141 97.0373 16.0279C97.1705 16.3417 97.0183 16.532 96.7805 16.532ZM92.7576 12.7277C92.5103 11.9574 92.2535 11.149 91.9967 10.3596C91.759 11.149 91.5022 11.9574 91.2454 12.7277H92.7576Z" fill="white"/>
<path d="M105.86 6.89779V8.63822C105.861 8.68522 105.853 8.732 105.836 8.7758C105.819 8.8196 105.793 8.85952 105.76 8.89321C105.727 8.9269 105.688 8.95367 105.645 8.97195C105.602 8.99023 105.555 8.99963 105.508 8.99962H103.007V16.1706C103.008 16.2176 103 16.2643 102.983 16.3081C102.966 16.3519 102.94 16.3919 102.907 16.4256C102.874 16.4592 102.835 16.486 102.792 16.5043C102.748 16.5226 102.702 16.532 102.655 16.532H100.429C100.334 16.532 100.242 16.4939 100.174 16.4261C100.106 16.3583 100.068 16.2664 100.068 16.1706V8.99962H97.5762C97.4804 8.99962 97.3885 8.96154 97.3207 8.89376C97.2529 8.82599 97.2148 8.73407 97.2148 8.63822V6.89779C97.2173 6.8036 97.2565 6.7141 97.324 6.64837C97.3915 6.58263 97.482 6.54587 97.5762 6.5459H105.508C105.601 6.5483 105.689 6.58615 105.754 6.65163C105.82 6.71711 105.858 6.80522 105.86 6.89779Z" fill="white"/>
<path d="M116.304 16.532H113.984C113.556 16.532 113.499 16.3893 113.337 16.0184C113.337 15.9423 113.213 15.657 113.071 15.2005H110.008C109.866 15.657 109.761 15.9423 109.733 16.0184C109.59 16.3893 109.523 16.532 109.095 16.532H106.784C106.537 16.532 106.394 16.3417 106.527 16.0279C106.661 15.7141 109.79 7.14506 109.904 6.89779C110.018 6.65051 110.094 6.5459 110.351 6.5459H112.747C113.004 6.5459 113.09 6.66002 113.204 6.89779C113.318 7.13555 116.457 15.7141 116.58 16.0279C116.704 16.3417 116.552 16.532 116.304 16.532ZM112.281 12.7277C112.044 11.9574 111.787 11.149 111.53 10.3596C111.283 11.149 111.026 11.9574 110.769 12.7277H112.281Z" fill="white"/>
</svg>
